<svg xmlns="http://www.w3.org/2000/svg" xmlns:xlink="http://www.w3.org/1999/xlink" width="3000" zoomAndPan="magnify" viewBox="0 0 2250 749.999995" height="1000" preserveAspectRatio="xMidYMid meet" version="1.0"><defs><g/><clipPath id="0ebd390a7a"><rect x="0" width="1736" y="0" height="331"/></clipPath></defs><g transform="matrix(1, 0, 0, 1, 435, 203)"><g clip-path="url(#0ebd390a7a)"><g fill="#1a3a5c" fill-opacity="1"><g transform="translate(0.27942, 262.689861)"><g><path d="M 84.671875 3.25 C 69.703125 3.25 55.226562 1.222656 41.25 -2.828125 C 27.269531 -6.890625 16.046875 -12.171875 7.578125 -18.671875 L 22.453125 -51.671875 C 30.566406 -45.710938 40.210938 -40.929688 51.390625 -37.328125 C 62.578125 -33.722656 73.757812 -31.921875 84.9375 -31.921875 C 97.375 -31.921875 106.566406 -33.769531 112.515625 -37.46875 C 118.472656 -41.164062 121.453125 -46.078125 121.453125 -52.203125 C 121.453125 -56.710938 119.691406 -60.453125 116.171875 -63.421875 C 112.660156 -66.398438 108.15625 -68.789062 102.65625 -70.59375 C 97.15625 -72.40625 89.71875 -74.390625 80.34375 -76.546875 C 65.914062 -79.972656 54.101562 -83.398438 44.90625 -86.828125 C 35.707031 -90.253906 27.816406 -95.753906 21.234375 -103.328125 C 14.648438 -110.898438 11.359375 -121 11.359375 -133.625 C 11.359375 -144.625 14.332031 -154.585938 20.28125 -163.515625 C 26.238281 -172.441406 35.210938 -179.519531 47.203125 -184.75 C 59.191406 -189.976562 73.84375 -192.59375 91.15625 -192.59375 C 103.238281 -192.59375 115.050781 -191.148438 126.59375 -188.265625 C 138.132812 -185.378906 148.234375 -181.234375 156.890625 -175.828125 L 143.359375 -142.546875 C 125.867188 -152.472656 108.378906 -157.4375 90.890625 -157.4375 C 78.628906 -157.4375 69.566406 -155.453125 63.703125 -151.484375 C 57.835938 -147.515625 54.90625 -142.285156 54.90625 -135.796875 C 54.90625 -129.296875 58.285156 -124.46875 65.046875 -121.3125 C 71.816406 -118.15625 82.144531 -115.046875 96.03125 -111.984375 C 110.457031 -108.554688 122.269531 -105.128906 131.46875 -101.703125 C 140.664062 -98.273438 148.550781 -92.863281 155.125 -85.46875 C 161.707031 -78.082031 165 -68.078125 165 -55.453125 C 165 -44.628906 161.976562 -34.753906 155.9375 -25.828125 C 149.894531 -16.898438 140.832031 -9.820312 128.75 -4.59375 C 116.675781 0.632812 101.984375 3.25 84.671875 3.25 Z M 84.671875 3.25 "/></g></g></g><g fill="#1a3a5c" fill-opacity="1"><g transform="translate(172.858865, 262.689861)"><g><path d="M 166.09375 -145.53125 L 166.09375 0 L 126.046875 0 L 126.046875 -17.3125 C 120.460938 -11 113.789062 -6.175781 106.03125 -2.84375 C 98.28125 0.488281 89.894531 2.15625 80.875 2.15625 C 61.757812 2.15625 46.613281 -3.34375 35.4375 -14.34375 C 24.257812 -25.34375 18.671875 -41.660156 18.671875 -63.296875 L 18.671875 -145.53125 L 60.859375 -145.53125 L 60.859375 -69.515625 C 60.859375 -46.078125 70.6875 -34.359375 90.34375 -34.359375 C 100.445312 -34.359375 108.5625 -37.644531 114.6875 -44.21875 C 120.820312 -50.800781 123.890625 -60.585938 123.890625 -73.578125 L 123.890625 -145.53125 Z M 166.09375 -145.53125 "/></g></g></g><g fill="#1a3a5c" fill-opacity="1"><g transform="translate(358.692877, 262.689861)"><g><path d="M 105.5 -147.6875 C 119.019531 -147.6875 131.320312 -144.578125 142.40625 -138.359375 C 153.5 -132.140625 162.203125 -123.394531 168.515625 -112.125 C 174.828125 -100.851562 177.984375 -87.734375 177.984375 -72.765625 C 177.984375 -57.796875 174.828125 -44.675781 168.515625 -33.40625 C 162.203125 -22.132812 153.5 -13.390625 142.40625 -7.171875 C 131.320312 -0.953125 119.019531 2.15625 105.5 2.15625 C 86.925781 2.15625 72.316406 -3.703125 61.671875 -15.421875 L 61.671875 52.484375 L 19.46875 52.484375 L 19.46875 -145.53125 L 59.78125 -145.53125 L 59.78125 -128.765625 C 70.238281 -141.378906 85.476562 -147.6875 105.5 -147.6875 Z M 98.1875 -32.453125 C 109.007812 -32.453125 117.890625 -36.101562 124.828125 -43.40625 C 131.773438 -50.71875 135.25 -60.503906 135.25 -72.765625 C 135.25 -85.023438 131.773438 -94.804688 124.828125 -102.109375 C 117.890625 -109.410156 109.007812 -113.0625 98.1875 -113.0625 C 87.375 -113.0625 78.492188 -109.410156 71.546875 -102.109375 C 64.609375 -94.804688 61.140625 -85.023438 61.140625 -72.765625 C 61.140625 -60.503906 64.609375 -50.71875 71.546875 -43.40625 C 78.492188 -36.101562 87.375 -32.453125 98.1875 -32.453125 Z M 98.1875 -32.453125 "/></g></g></g><g fill="#1a3a5c" fill-opacity="1"><g transform="translate(545.338409, 262.689861)"><g><path d="M 105.5 -147.6875 C 119.019531 -147.6875 131.320312 -144.578125 142.40625 -138.359375 C 153.5 -132.140625 162.203125 -123.394531 168.515625 -112.125 C 174.828125 -100.851562 177.984375 -87.734375 177.984375 -72.765625 C 177.984375 -57.796875 174.828125 -44.675781 168.515625 -33.40625 C 162.203125 -22.132812 153.5 -13.390625 142.40625 -7.171875 C 131.320312 -0.953125 119.019531 2.15625 105.5 2.15625 C 86.925781 2.15625 72.316406 -3.703125 61.671875 -15.421875 L 61.671875 52.484375 L 19.46875 52.484375 L 19.46875 -145.53125 L 59.78125 -145.53125 L 59.78125 -128.765625 C 70.238281 -141.378906 85.476562 -147.6875 105.5 -147.6875 Z M 98.1875 -32.453125 C 109.007812 -32.453125 117.890625 -36.101562 124.828125 -43.40625 C 131.773438 -50.71875 135.25 -60.503906 135.25 -72.765625 C 135.25 -85.023438 131.773438 -94.804688 124.828125 -102.109375 C 117.890625 -109.410156 109.007812 -113.0625 98.1875 -113.0625 C 87.375 -113.0625 78.492188 -109.410156 71.546875 -102.109375 C 64.609375 -94.804688 61.140625 -85.023438 61.140625 -72.765625 C 61.140625 -60.503906 64.609375 -50.71875 71.546875 -43.40625 C 78.492188 -36.101562 87.375 -32.453125 98.1875 -32.453125 Z M 98.1875 -32.453125 "/></g></g></g><g fill="#1a3a5c" fill-opacity="1"><g transform="translate(731.983941, 262.689861)"><g><path d="M 19.46875 -200.71875 L 61.671875 -200.71875 L 61.671875 0 L 19.46875 0 Z M 19.46875 -200.71875 "/></g></g></g><g fill="#1a3a5c" fill-opacity="1"><g transform="translate(813.404619, 262.689861)"><g><path d="M 163.921875 -145.53125 L 98.1875 8.921875 C 91.519531 25.691406 83.269531 37.503906 73.4375 44.359375 C 63.613281 51.210938 51.757812 54.640625 37.875 54.640625 C 30.300781 54.640625 22.816406 53.46875 15.421875 51.125 C 8.023438 48.78125 1.984375 45.535156 -2.703125 41.390625 L 12.71875 11.359375 C 15.957031 14.242188 19.695312 16.5 23.9375 18.125 C 28.175781 19.75 32.367188 20.5625 36.515625 20.5625 C 42.285156 20.5625 46.972656 19.160156 50.578125 16.359375 C 54.191406 13.566406 57.441406 8.925781 60.328125 2.4375 L 60.859375 1.078125 L -2.15625 -145.53125 L 41.390625 -145.53125 L 82.234375 -46.796875 L 123.34375 -145.53125 Z M 163.921875 -145.53125 "/></g></g></g><g fill="#1a3a5c" fill-opacity="1"><g transform="translate(975.164106, 262.689861)"><g><path d="M 194.765625 0 L 194.484375 -113.609375 L 138.765625 -20.015625 L 119.015625 -20.015625 L 63.5625 -111.171875 L 63.5625 0 L 22.453125 0 L 22.453125 -189.34375 L 58.703125 -189.34375 L 129.5625 -71.6875 L 199.359375 -189.34375 L 235.328125 -189.34375 L 235.875 0 Z M 194.765625 0 "/></g></g></g><g fill="#1a3a5c" fill-opacity="1"><g transform="translate(1233.492316, 262.689861)"><g><path d="M 162.03125 -72.21875 C 162.03125 -71.675781 161.757812 -67.890625 161.21875 -60.859375 L 51.125 -60.859375 C 53.101562 -51.847656 57.789062 -44.726562 65.1875 -39.5 C 72.582031 -34.269531 81.78125 -31.65625 92.78125 -31.65625 C 100.351562 -31.65625 107.066406 -32.78125 112.921875 -35.03125 C 118.785156 -37.28125 124.242188 -40.84375 129.296875 -45.71875 L 151.75 -21.375 C 138.039062 -5.6875 118.023438 2.15625 91.703125 2.15625 C 75.285156 2.15625 60.765625 -1.039062 48.140625 -7.4375 C 35.523438 -13.84375 25.789062 -22.722656 18.9375 -34.078125 C 12.082031 -45.441406 8.65625 -58.335938 8.65625 -72.765625 C 8.65625 -87.015625 12.035156 -99.863281 18.796875 -111.3125 C 25.554688 -122.757812 34.84375 -131.679688 46.65625 -138.078125 C 58.46875 -144.484375 71.679688 -147.6875 86.296875 -147.6875 C 100.535156 -147.6875 113.425781 -144.617188 124.96875 -138.484375 C 136.507812 -132.359375 145.570312 -123.570312 152.15625 -112.125 C 158.738281 -100.675781 162.03125 -87.375 162.03125 -72.21875 Z M 86.5625 -115.78125 C 77 -115.78125 68.972656 -113.070312 62.484375 -107.65625 C 55.992188 -102.25 52.023438 -94.859375 50.578125 -85.484375 L 122.265625 -85.484375 C 120.828125 -94.679688 116.859375 -102.03125 110.359375 -107.53125 C 103.867188 -113.03125 95.9375 -115.78125 86.5625 -115.78125 Z M 86.5625 -115.78125 "/></g></g></g><g fill="#1a3a5c" fill-opacity="1"><g transform="translate(1404.17822, 262.689861)"><g><path d="M 68.4375 2.15625 C 56.351562 2.15625 44.539062 0.671875 33 -2.296875 C 21.457031 -5.273438 12.257812 -9.019531 5.40625 -13.53125 L 19.46875 -43.828125 C 25.96875 -39.671875 33.816406 -36.285156 43.015625 -33.671875 C 52.210938 -31.054688 61.226562 -29.75 70.0625 -29.75 C 87.914062 -29.75 96.84375 -34.171875 96.84375 -43.015625 C 96.84375 -47.160156 94.40625 -50.132812 89.53125 -51.9375 C 84.664062 -53.738281 77.179688 -55.269531 67.078125 -56.53125 C 55.179688 -58.332031 45.351562 -60.40625 37.59375 -62.75 C 29.84375 -65.09375 23.125 -69.238281 17.4375 -75.1875 C 11.757812 -81.144531 8.921875 -89.625 8.921875 -100.625 C 8.921875 -109.820312 11.582031 -117.984375 16.90625 -125.109375 C 22.226562 -132.234375 29.984375 -137.773438 40.171875 -141.734375 C 50.359375 -145.703125 62.394531 -147.6875 76.28125 -147.6875 C 86.5625 -147.6875 96.796875 -146.5625 106.984375 -144.3125 C 117.171875 -142.0625 125.601562 -138.953125 132.28125 -134.984375 L 118.203125 -104.953125 C 105.398438 -112.171875 91.425781 -115.78125 76.28125 -115.78125 C 67.257812 -115.78125 60.492188 -114.515625 55.984375 -111.984375 C 51.484375 -109.460938 49.234375 -106.21875 49.234375 -102.25 C 49.234375 -97.738281 51.664062 -94.582031 56.53125 -92.78125 C 61.40625 -90.976562 69.160156 -89.265625 79.796875 -87.640625 C 91.703125 -85.660156 101.441406 -83.539062 109.015625 -81.28125 C 116.585938 -79.03125 123.164062 -74.925781 128.75 -68.96875 C 134.34375 -63.019531 137.140625 -54.726562 137.140625 -44.09375 C 137.140625 -35.070312 134.429688 -27.046875 129.015625 -20.015625 C 123.609375 -12.984375 115.722656 -7.53125 105.359375 -3.65625 C 94.992188 0.21875 82.6875 2.15625 68.4375 2.15625 Z M 68.4375 2.15625 "/></g></g></g><g fill="#1a3a5c" fill-opacity="1"><g transform="translate(1547.814192, 262.689861)"><g><path d="M 107.921875 -147.6875 C 125.960938 -147.6875 140.523438 -142.273438 151.609375 -131.453125 C 162.703125 -120.640625 168.25 -104.59375 168.25 -83.3125 L 168.25 0 L 126.046875 0 L 126.046875 -76.828125 C 126.046875 -88.367188 123.519531 -96.976562 118.46875 -102.65625 C 113.425781 -108.332031 106.125 -111.171875 96.5625 -111.171875 C 85.925781 -111.171875 77.453125 -107.878906 71.140625 -101.296875 C 64.828125 -94.710938 61.671875 -84.929688 61.671875 -71.953125 L 61.671875 0 L 19.46875 0 L 19.46875 -200.71875 L 61.671875 -200.71875 L 61.671875 -130.375 C 67.265625 -135.96875 74.023438 -140.25 81.953125 -143.21875 C 89.890625 -146.195312 98.546875 -147.6875 107.921875 -147.6875 Z M 107.921875 -147.6875 "/></g></g></g></g></g><path fill="#0d9488" d="M 269.441406 231.289062 C 260.101562 233.800781 254.980469 236.316406 241.328125 245.300781 C 234.769531 249.609375 225.339844 255.71875 220.398438 258.953125 C 162.464844 296.855469 125.460938 322.007812 121.058594 326.585938 C 111.449219 336.289062 105.789062 351.917969 107.136719 364.3125 C 108.394531 375.359375 114.679688 387.753906 122.675781 394.761719 C 128.78125 400.148438 184.742188 438.234375 191.65625 441.738281 C 199.203125 445.507812 206.296875 447.214844 214.5625 447.125 C 226.777344 447.125 232.617188 444.789062 253.003906 431.675781 C 276.539062 416.585938 300.339844 400.777344 303.753906 398.171875 C 313.722656 390.269531 313.09375 375.089844 302.40625 368.082031 C 299.53125 366.199219 297.375 365.570312 292.796875 365.300781 C 284.171875 364.761719 285.699219 363.953125 247.976562 388.5625 C 220.578125 406.4375 221.476562 405.898438 214.023438 406.257812 C 208.183594 406.617188 206.835938 406.347656 202.707031 404.191406 C 198.574219 402.035156 182.046875 391.078125 158.246094 374.730469 C 150.519531 369.429688 148.09375 366.019531 148.09375 360.359375 C 148.09375 353.261719 148.632812 352.8125 189.410156 326.496094 C 196.058594 322.1875 216.269531 309.070312 234.320312 297.394531 C 252.375 285.71875 270.070312 274.671875 273.664062 272.875 C 279.679688 269.820312 280.9375 269.550781 287.585938 269.550781 C 293.332031 269.550781 296.117188 270.089844 300.339844 271.796875 C 303.394531 273.054688 321.539062 284.550781 340.757812 297.304688 C 359.980469 310.058594 377.40625 321.109375 379.382812 321.828125 C 387.464844 324.609375 396.988281 320.660156 400.847656 312.84375 C 403.722656 307.097656 403.8125 303.144531 401.027344 297.304688 C 397.4375 289.671875 395.550781 288.234375 352.347656 259.3125 C 315.699219 234.878906 314.800781 234.339844 301.148438 230.929688 C 293.246094 228.863281 277.886719 229.132812 269.441406 231.289062 Z M 269.441406 231.289062 " fill-opacity="1" fill-rule="nonzero"/><path fill="#0d9488" d="M 276.988281 300.808594 C 270.96875 302.335938 267.375 304.222656 251.65625 314.460938 C 244.382812 319.3125 233.691406 326.226562 228.035156 329.910156 C 212.945312 339.789062 208.453125 343.382812 205.757812 347.964844 C 199.742188 358.203125 205.488281 371.046875 217.527344 374.28125 C 224.441406 376.078125 228.035156 374.550781 251.386719 359.550781 C 277.167969 342.933594 280.398438 341.316406 287.046875 342.035156 C 293.066406 342.664062 295.21875 343.832031 323.871094 362.695312 C 357.195312 384.519531 356.476562 383.890625 356.476562 391.257812 C 356.476562 398.441406 355.128906 399.699219 322.796875 420.179688 C 315.878906 424.582031 306.808594 430.417969 302.585938 433.203125 C 272.585938 452.875 241.058594 472.632812 234.589844 475.957031 C 224.53125 480.988281 210.789062 480.988281 200.730469 475.867188 C 196.328125 473.621094 185.460938 466.617188 151.238281 443.890625 C 131.65625 430.867188 125.910156 427.992188 119.800781 427.992188 C 112.257812 428.082031 104.710938 432.753906 102.375 439.042969 C 100.21875 444.699219 102.105469 452.246094 106.957031 457.722656 C 109.742188 460.867188 122.496094 470.390625 148.09375 488.171875 C 159.679688 496.257812 171.628906 504.609375 174.589844 506.855469 C 185.460938 514.761719 201 520.417969 215.910156 521.765625 C 228.574219 523.023438 246.808594 519.25 259.652344 512.785156 C 265.039062 510.089844 288.84375 495 326.835938 470.390625 C 370.847656 441.828125 387.285156 430.507812 391.6875 426.019531 C 399.679688 417.84375 404.980469 402.664062 403.632812 392.15625 C 402.105469 380.75 396 369.160156 388.09375 362.605469 C 380.101562 355.957031 308.601562 307.542969 301.238281 303.863281 C 293.15625 299.730469 285.25 298.742188 276.988281 300.808594 Z M 276.988281 300.808594 " fill-opacity="1" fill-rule="nonzero"/></svg>